<?xml version="1.0" encoding="UTF-8"?>
<svg width="52px" height="52px" viewBox="0 0 52 52" version="1.1" xmlns="http://www.w3.org/2000/svg" xmlns:xlink="http://www.w3.org/1999/xlink">
    <!-- Generator: sketchtool 59.1 (101010) - https://sketch.com -->
    <title>4105A316-EF52-45C8-9166-8C2C5669FDF6</title>
    <desc>Created with sketchtool.</desc>
    <g id="♻️-Tokens/Logos" stroke="none" stroke-width="1" fill="none" fill-rule="evenodd">
        <g id="Logo-/-Logos" transform="translate(-238.000000, -211.000000)" fill-rule="nonzero">
            <g id="Logo/Color/Symbol" transform="translate(238.000000, 211.000000)">
                <g id="Group">
                    <rect id="Rectangle" fill="#FFF054" transform="translate(17.381313, 8.949943) rotate(-45.000000) translate(-17.381313, -8.949943) " x="11.43137" y="3" width="11.8998859" height="11.8998859"></rect>
                    <rect id="Rectangle" fill="#93D2E5" transform="translate(43.107923, 17.384113) rotate(-45.000000) translate(-43.107923, -17.384113) " x="37.15798" y="11.43417" width="11.8998859" height="11.8998859"></rect>
                    <rect id="Rectangle" fill="#F39C74" transform="translate(8.949943, 34.675753) rotate(-45.000000) translate(-8.949943, -34.675753) " x="3" y="28.72581" width="11.8998859" height="11.8998859"></rect>
                    <rect id="Rectangle" fill="#6B4795" transform="translate(34.746363, 43.036113) rotate(-45.000000) translate(-34.746363, -43.036113) " x="28.79642" y="37.08617" width="11.8998859" height="11.8998859"></rect>
                    <polygon id="Path" fill="#FFDF43" points="17.3252529 34.7332729 8.92525294 26.3332729 8.92525294 8.93327294 17.3252529 17.3332729"></polygon>
                    <polygon id="Path" fill="#5FBDB4" points="43.1252529 43.1332729 34.7252529 34.7332729 34.7252529 17.3332729 43.1252529 25.7332729"></polygon>
                    <polygon id="Path" fill="#43BCD7" points="17.3252529 17.3332729 25.7252529 8.93327294 43.1252529 8.93327294 34.7252529 17.3332729"></polygon>
                    <polygon id="Path" fill="#EC6B70" points="8.92525294 43.1332729 17.3252529 34.7332729 34.7252529 34.7332729 26.3252529 43.1332729"></polygon>
                </g>
            </g>
        </g>
    </g>
</svg>